HIERARCHY
ROOT mixamorig:Hips
{
	OFFSET -0.000008 104.274872 1.554316
	CHANNELS 6 Xposition Yposition Zposition Xrotation Yrotation Zrotation
	JOINT mixamorig:Spine
	{
		OFFSET -0.000005 10.181595 0.131519
		CHANNELS 6 Xposition Yposition Zposition Xrotation Yrotation Zrotation
		JOINT mixamorig:Spine1
		{
			OFFSET -0.000000 9.893959 -1.470707
			CHANNELS 6 Xposition Yposition Zposition Xrotation Yrotation Zrotation
			JOINT mixamorig:Spine2
			{
				OFFSET -0.000000 9.220757 -1.370641
				CHANNELS 6 Xposition Yposition Zposition Xrotation Yrotation Zrotation
				JOINT mixamorig:Neck
				{
					OFFSET 0.000001 16.740417 -2.049036
					CHANNELS 6 Xposition Yposition Zposition Xrotation Yrotation Zrotation
					JOINT mixamorig:Head
					{
						OFFSET 0.000000 9.617874 1.685006
						CHANNELS 6 Xposition Yposition Zposition Xrotation Yrotation Zrotation
						JOINT mixamorig:HeadTop_End
						{
							OFFSET 0.000002 22.037354 7.501101
							CHANNELS 6 Xposition Yposition Zposition Xrotation Yrotation Zrotation
							End Site
							{
								OFFSET 0.000168 2310.654297 -282.823242
							}
						}
					}
				}
				JOINT mixamorig:RightShoulder
				{
					OFFSET -4.569970 11.014908 -2.160885
					CHANNELS 6 Xposition Yposition Zposition Xrotation Yrotation Zrotation
					JOINT mixamorig:RightArm
					{
						OFFSET -10.592851 -0.524811 -2.232101
						CHANNELS 6 Xposition Yposition Zposition Xrotation Yrotation Zrotation
						JOINT mixamorig:RightForeArm
						{
							OFFSET -27.841511 0.000031 -0.000004
							CHANNELS 6 Xposition Yposition Zposition Xrotation Yrotation Zrotation
							JOINT mixamorig:RightHand
							{
								OFFSET -28.328831 -0.000015 0.000015
								CHANNELS 6 Xposition Yposition Zposition Xrotation Yrotation Zrotation
								JOINT mixamorig:RightHandThumb1
								{
									OFFSET -2.464806 -1.573990 2.681852
									CHANNELS 6 Xposition Yposition Zposition Xrotation Yrotation Zrotation
									JOINT mixamorig:RightHandThumb2
									{
										OFFSET -3.215179 -1.872803 1.924282
										CHANNELS 6 Xposition Yposition Zposition Xrotation Yrotation Zrotation
										JOINT mixamorig:RightHandThumb3
										{
											OFFSET -2.654831 -1.527969 1.512609
											CHANNELS 6 Xposition Yposition Zposition Xrotation Yrotation Zrotation
											JOINT mixamorig:RightHandThumb4
											{
												OFFSET -2.018814 -1.152008 1.108052
												CHANNELS 6 Xposition Yposition Zposition Xrotation Yrotation Zrotation
												End Site
												{
													OFFSET -188.809540 -114.533607 132.431396
												}
											}
										}
									}
								}
								JOINT mixamorig:RightHandIndex1
								{
									OFFSET -9.108284 -0.517868 2.259835
									CHANNELS 6 Xposition Yposition Zposition Xrotation Yrotation Zrotation
									JOINT mixamorig:RightHandIndex2
									{
										OFFSET -3.699989 0.000000 0.001215
										CHANNELS 6 Xposition Yposition Zposition Xrotation Yrotation Zrotation
										JOINT mixamorig:RightHandIndex3
										{
											OFFSET -2.850006 0.000031 -0.000522
											CHANNELS 6 Xposition Yposition Zposition Xrotation Yrotation Zrotation
											JOINT mixamorig:RightHandIndex4
											{
												OFFSET -2.772186 -0.000015 -0.000020
												CHANNELS 6 Xposition Yposition Zposition Xrotation Yrotation Zrotation
												End Site
												{
													OFFSET -277.218445 0.000000 -0.050231
												}
											}
										}
									}
								}
								JOINT mixamorig:RightHandMiddle1
								{
									OFFSET -9.532516 -0.000031 -0.000023
									CHANNELS 6 Xposition Yposition Zposition Xrotation Yrotation Zrotation
									JOINT mixamorig:RightHandMiddle2
									{
										OFFSET -3.700005 -0.000015 0.003713
										CHANNELS 6 Xposition Yposition Zposition Xrotation Yrotation Zrotation
										JOINT mixamorig:RightHandMiddle3
										{
											OFFSET -2.949974 0.000015 -0.002054
											CHANNELS 6 Xposition Yposition Zposition Xrotation Yrotation Zrotation
											JOINT mixamorig:RightHandMiddle4
											{
												OFFSET -2.946640 0.000000 -0.000156
												CHANNELS 6 Xposition Yposition Zposition Xrotation Yrotation Zrotation
												End Site
												{
													OFFSET -294.664337 0.000000 -0.113670
												}
											}
										}
									}
								}
								JOINT mixamorig:RightHandRing1
								{
									OFFSET -9.103600 -0.043076 -1.865134
									CHANNELS 6 Xposition Yposition Zposition Xrotation Yrotation Zrotation
									JOINT mixamorig:RightHandRing2
									{
										OFFSET -3.379288 0.000000 -0.001055
										CHANNELS 6 Xposition Yposition Zposition Xrotation Yrotation Zrotation
										JOINT mixamorig:RightHandRing3
										{
											OFFSET -2.889687 -0.000015 0.000379
											CHANNELS 6 Xposition Yposition Zposition Xrotation Yrotation Zrotation
											JOINT mixamorig:RightHandRing4
											{
												OFFSET -2.638809 -0.000015 0.000941
												CHANNELS 6 Xposition Yposition Zposition Xrotation Yrotation Zrotation
												End Site
												{
													OFFSET -263.880371 0.000000 0.516020
												}
											}
										}
									}
								}
								JOINT mixamorig:RightHandPinky1
								{
									OFFSET -8.076683 -0.486710 -3.806280
									CHANNELS 6 Xposition Yposition Zposition Xrotation Yrotation Zrotation
									JOINT mixamorig:RightHandPinky2
									{
										OFFSET -3.600014 -0.000015 -0.003747
										CHANNELS 6 Xposition Yposition Zposition Xrotation Yrotation Zrotation
										JOINT mixamorig:RightHandPinky3
										{
											OFFSET -2.099983 0.000000 -0.005739
											CHANNELS 6 Xposition Yposition Zposition Xrotation Yrotation Zrotation
											JOINT mixamorig:RightHandPinky4
											{
												OFFSET -2.115768 -0.000031 -0.003680
												CHANNELS 6 Xposition Yposition Zposition Xrotation Yrotation Zrotation
												End Site
												{
													OFFSET -211.577087 0.000000 -0.350686
												}
											}
										}
									}
								}
							}
						}
					}
				}
				JOINT mixamorig:LeftShoulder
				{
					OFFSET 4.570447 11.014725 -2.160855
					CHANNELS 6 Xposition Yposition Zposition Xrotation Yrotation Zrotation
					JOINT mixamorig:LeftArm
					{
						OFFSET 10.592371 -0.524597 -2.232119
						CHANNELS 6 Xposition Yposition Zposition Xrotation Yrotation Zrotation
						JOINT mixamorig:LeftForeArm
						{
							OFFSET 27.841532 -0.000031 0.000026
							CHANNELS 6 Xposition Yposition Zposition Xrotation Yrotation Zrotation
							JOINT mixamorig:LeftHand
							{
								OFFSET 28.328846 -0.000061 0.000022
								CHANNELS 6 Xposition Yposition Zposition Xrotation Yrotation Zrotation
								JOINT mixamorig:LeftHandThumb1
								{
									OFFSET 2.466141 -1.576172 2.681732
									CHANNELS 6 Xposition Yposition Zposition Xrotation Yrotation Zrotation
									JOINT mixamorig:LeftHandThumb2
									{
										OFFSET 3.217812 -1.872070 1.916482
										CHANNELS 6 Xposition Yposition Zposition Xrotation Yrotation Zrotation
										JOINT mixamorig:LeftHandThumb3
										{
											OFFSET 2.656029 -1.528778 1.514513
											CHANNELS 6 Xposition Yposition Zposition Xrotation Yrotation Zrotation
											JOINT mixamorig:LeftHandThumb4
											{
												OFFSET 2.020889 -1.154053 1.115139
												CHANNELS 6 Xposition Yposition Zposition Xrotation Yrotation Zrotation
												End Site
												{
													OFFSET 190.885437 -115.081749 130.048782
												}
											}
										}
									}
								}
								JOINT mixamorig:LeftHandIndex1
								{
									OFFSET 9.109314 -0.518021 2.259871
									CHANNELS 6 Xposition Yposition Zposition Xrotation Yrotation Zrotation
									JOINT mixamorig:LeftHandIndex2
									{
										OFFSET 3.699989 0.000000 -0.000322
										CHANNELS 6 Xposition Yposition Zposition Xrotation Yrotation Zrotation
										JOINT mixamorig:LeftHandIndex3
										{
											OFFSET 2.850006 0.000000 0.000352
											CHANNELS 6 Xposition Yposition Zposition Xrotation Yrotation Zrotation
											JOINT mixamorig:LeftHandIndex4
											{
												OFFSET 2.774864 -0.000031 -0.000027
												CHANNELS 6 Xposition Yposition Zposition Xrotation Yrotation Zrotation
												End Site
												{
													OFFSET 277.486267 0.000000 -0.009857
												}
											}
										}
									}
								}
								JOINT mixamorig:LeftHandMiddle1
								{
									OFFSET 9.533394 0.000061 0.000044
									CHANNELS 6 Xposition Yposition Zposition Xrotation Yrotation Zrotation
									JOINT mixamorig:LeftHandMiddle2
									{
										OFFSET 3.699989 -0.000015 -0.000231
										CHANNELS 6 Xposition Yposition Zposition Xrotation Yrotation Zrotation
										JOINT mixamorig:LeftHandMiddle3
										{
											OFFSET 2.949997 -0.000015 -0.000059
											CHANNELS 6 Xposition Yposition Zposition Xrotation Yrotation Zrotation
											JOINT mixamorig:LeftHandMiddle4
											{
												OFFSET 2.952896 0.000031 0.000063
												CHANNELS 6 Xposition Yposition Zposition Xrotation Yrotation Zrotation
												End Site
												{
													OFFSET 295.289337 0.000000 0.022810
												}
											}
										}
									}
								}
								JOINT mixamorig:LeftHandRing1
								{
									OFFSET 9.104523 -0.042999 -1.865074
									CHANNELS 6 Xposition Yposition Zposition Xrotation Yrotation Zrotation
									JOINT mixamorig:LeftHandRing2
									{
										OFFSET 3.150009 -0.000031 0.000043
										CHANNELS 6 Xposition Yposition Zposition Xrotation Yrotation Zrotation
										JOINT mixamorig:LeftHandRing3
										{
											OFFSET 2.949982 -0.000015 0.000040
											CHANNELS 6 Xposition Yposition Zposition Xrotation Yrotation Zrotation
											JOINT mixamorig:LeftHandRing4
											{
												OFFSET 2.644348 0.000000 0.000057
												CHANNELS 6 Xposition Yposition Zposition Xrotation Yrotation Zrotation
												End Site
												{
													OFFSET 264.434631 0.000000 0.012105
												}
											}
										}
									}
								}
								JOINT mixamorig:LeftHandPinky1
								{
									OFFSET 8.077789 -0.486847 -3.806259
									CHANNELS 6 Xposition Yposition Zposition Xrotation Yrotation Zrotation
									JOINT mixamorig:LeftHandPinky2
									{
										OFFSET 3.599953 0.000031 0.014727
										CHANNELS 6 Xposition Yposition Zposition Xrotation Yrotation Zrotation
										JOINT mixamorig:LeftHandPinky3
										{
											OFFSET 2.100021 0.000015 0.007705
											CHANNELS 6 Xposition Yposition Zposition Xrotation Yrotation Zrotation
											JOINT mixamorig:LeftHandPinky4
											{
												OFFSET 2.125504 0.000031 0.007517
												CHANNELS 6 Xposition Yposition Zposition Xrotation Yrotation Zrotation
												End Site
												{
													OFFSET 212.550781 0.000000 0.625752
												}
											}
										}
									}
								}
							}
						}
					}
				}
			}
		}
	}
	JOINT mixamorig:RightUpLeg
	{
		OFFSET -8.207787 -6.751648 -1.599560
		CHANNELS 6 Xposition Yposition Zposition Xrotation Yrotation Zrotation
		JOINT mixamorig:RightLeg
		{
			OFFSET -0.000002 -44.370117 0.345942
			CHANNELS 6 Xposition Yposition Zposition Xrotation Yrotation Zrotation
			JOINT mixamorig:RightFoot
			{
				OFFSET 0.000003 -44.423679 -3.043532
				CHANNELS 6 Xposition Yposition Zposition Xrotation Yrotation Zrotation
				JOINT mixamorig:RightToeBase
				{
					OFFSET -0.000002 -8.728671 10.710558
					CHANNELS 6 Xposition Yposition Zposition Xrotation Yrotation Zrotation
					JOINT mixamorig:RightToe_End
					{
						OFFSET -0.000001 -0.000679 9.278119
						CHANNELS 6 Xposition Yposition Zposition Xrotation Yrotation Zrotation
						End Site
						{
							OFFSET 0.000000 -0.067690 927.812134
						}
					}
				}
			}
		}
	}
	JOINT mixamorig:LeftUpLeg
	{
		OFFSET 8.207793 -6.751686 -1.599556
		CHANNELS 6 Xposition Yposition Zposition Xrotation Yrotation Zrotation
		JOINT mixamorig:LeftLeg
		{
			OFFSET -0.000004 -44.370014 0.346954
			CHANNELS 6 Xposition Yposition Zposition Xrotation Yrotation Zrotation
			JOINT mixamorig:LeftFoot
			{
				OFFSET -0.000001 -44.423672 -3.044401
				CHANNELS 6 Xposition Yposition Zposition Xrotation Yrotation Zrotation
				JOINT mixamorig:LeftToeBase
				{
					OFFSET -0.000002 -8.728669 10.710558
					CHANNELS 6 Xposition Yposition Zposition Xrotation Yrotation Zrotation
					JOINT mixamorig:LeftToe_End
					{
						OFFSET -0.000003 -0.000679 9.278133
						CHANNELS 6 Xposition Yposition Zposition Xrotation Yrotation Zrotation
						End Site
						{
							OFFSET 0.000000 -0.068021 927.813477
						}
					}
				}
			}
		}
	}
}
MOTION
Frames: 3
Frame Time: 0.033333
0.000006 104.270477 1.554256 0.000010 0.000003 -0.000113 -0.000005 10.181587 0.131522 0.000001 -0.000003 0.000084 -0.000000 9.893967 -1.470711 0.000001 0.000000 -0.000000 -0.000000 9.220802 -1.370642 0.000000 -0.000000 -0.000000 0.000001 16.740433 -2.049030 0.000000 -0.000000 -0.000000 0.000000 9.617859 1.685014 0.000000 0.000000 0.000000 0.000002 22.037384 7.501101 0.000000 -0.000000 0.000000 -4.569968 11.014880 -2.160881 0.000008 0.000001 -0.000038 -10.592867 -0.524675 -2.232037 70.095178 7.179956 -5.039711 -27.841547 0.000030 0.000535 -58.863820 120.336144 89.069191 -28.328835 0.000007 0.000021 -0.000320 -0.000045 0.000007 -2.464476 -1.573932 2.682411 -28.458110 -156.759644 32.060901 -3.215294 -1.872606 1.924676 161.004060 30.199377 -6.698744 -2.654937 -1.527905 1.513101 149.011000 25.218185 -48.351476 -2.018837 -1.152011 1.108064 0.000000 0.000004 0.000003 -9.108407 -0.517565 2.260138 99.474820 18.605336 -21.948418 -3.700087 0.000314 0.001518 96.506099 15.243029 -17.027732 -2.850081 0.000369 -0.000272 93.997070 11.362399 -12.177099 -2.772161 0.000003 -0.000019 0.000003 0.000002 -0.000001 -9.532605 0.000251 0.000224 90.072498 16.385748 -16.549210 -3.700073 0.000324 0.003969 91.277507 12.161376 -12.336664 -2.950045 0.000324 -0.001811 90.505737 10.404577 -10.489257 -2.946649 0.000001 -0.000152 0.000001 -0.000001 0.000001 -9.103693 -0.042775 -1.864890 88.845475 16.503706 -16.135316 -3.379316 0.000322 -0.000827 90.024024 8.738922 -8.759731 -2.889745 0.000347 0.000614 91.771392 5.266195 -5.477201 -2.638819 0.000001 0.000942 0.000002 -0.000002 0.000001 -8.076748 -0.486397 -3.806056 84.489071 16.211360 -14.603472 -3.600046 0.000289 -0.003549 86.778366 6.909641 -6.203515 -2.099995 0.000325 -0.005523 87.057714 3.242735 -2.879302 -2.115760 -0.000042 -0.003682 0.000002 -0.000003 -0.000003 4.570446 11.014691 -2.160851 -0.000018 0.000010 -0.000021 10.592363 -0.524516 -2.232303 71.535460 6.222272 -4.484366 27.841827 0.000120 -0.000227 101.408030 -64.494177 75.257230 28.328815 -0.000028 0.000024 0.000021 -0.000089 0.000001 2.466246 -1.576082 2.681854 9.912426 161.360118 -95.743536 3.217779 -1.871694 1.916395 165.585437 -33.550777 -5.931541 2.656097 -1.528672 1.514496 139.550669 -27.398395 59.573668 2.020884 -1.154082 1.115135 0.000004 0.000004 0.000002 9.109369 -0.517848 2.259738 88.326900 -18.028491 17.505476 3.700045 0.000158 -0.000468 86.787648 -14.948986 14.158333 2.850045 0.000204 0.000195 85.071065 -11.761888 10.796022 2.774878 -0.000030 -0.000021 0.000001 -0.000001 0.000004 9.533464 0.000214 -0.000083 90.217455 -17.428896 17.485143 3.700052 0.000185 -0.000385 90.423222 -12.594430 12.684346 2.950068 0.000167 -0.000202 91.876611 -14.220214 14.691769 2.952861 -0.000032 0.000058 -0.000002 -0.000001 -0.000001 9.104576 -0.042850 -1.865215 86.819559 -15.488637 14.663074 3.150042 0.000217 -0.000092 90.870264 -10.452092 10.612973 2.950033 0.000183 -0.000080 95.805923 -11.211020 12.401815 2.644333 0.000030 0.000061 -0.000001 0.000001 -0.000000 8.077830 -0.486714 -3.806421 81.201715 -16.587579 14.750545 3.600002 0.000179 0.014547 81.784412 -13.479141 12.130068 2.100035 0.000202 0.007550 86.450865 -12.481134 12.192370 2.125495 -0.000002 0.007515 -0.000001 0.000002 0.000000 -8.207786 -6.751667 -1.599560 -0.077001 -0.000003 0.000080 -0.000002 -44.370110 0.345938 0.153719 -0.000000 -0.000000 0.000000 -44.423679 -3.043532 -0.076700 0.000000 -0.000002 -0.000006 -8.728667 10.710559 -0.000009 -0.000000 -0.000000 -0.000001 -0.000679 9.278123 0.000000 -0.000000 -0.000000 8.207792 -6.751710 -1.599556 -0.074518 -0.000003 0.000081 -0.000002 -44.370014 0.346960 0.148822 0.000002 0.000000 -0.000001 -44.423664 -3.044403 -0.074314 0.000000 -0.000002 -0.000004 -8.728671 10.710558 0.000007 -0.000000 -0.000000 0.000000 -0.000680 9.278137 -0.000000 0.000000 -0.000001 
0.000006 104.270477 1.554256 0.000010 0.000003 -0.000113 -0.000005 10.181587 0.131522 0.000001 -0.000003 0.000084 -0.000000 9.893967 -1.470711 0.000001 0.000000 -0.000000 -0.000000 9.220802 -1.370642 0.000000 -0.000000 -0.000000 0.000001 16.740433 -2.049030 0.000000 -0.000000 -0.000000 0.000000 9.617859 1.685014 0.000000 0.000000 0.000000 0.000002 22.037384 7.501101 0.000000 -0.000000 0.000000 -4.569968 11.014880 -2.160881 0.000008 0.000001 -0.000038 -10.592873 -0.524686 -2.232012 69.547657 9.801992 -6.814537 -27.841541 0.000008 0.000546 -57.601430 119.356272 86.456808 -28.328827 0.000021 0.000022 -0.000319 -0.000046 0.000006 -2.464433 -1.573831 2.682371 -40.731662 -160.912604 7.344692 -3.215285 -1.872652 1.924685 159.202420 29.453009 -10.016241 -2.654968 -1.527889 1.513093 145.408252 26.714062 -43.423734 -2.018840 -1.152021 1.108060 -0.000000 0.000003 -0.000002 -9.108384 -0.517540 2.260115 98.316536 16.206010 -18.759024 -3.700063 0.000335 0.001515 97.101009 12.503980 -14.116185 -2.850073 0.000396 -0.000265 95.479064 9.127375 -10.039299 -2.772161 0.000000 -0.000015 0.000001 0.000001 -0.000001 -9.532589 0.000296 0.000218 90.022918 14.683126 -14.829447 -3.700058 0.000337 0.003941 89.830901 9.489801 -9.370461 -2.950060 0.000346 -0.001827 91.760709 8.858250 -9.126499 -2.946624 -0.000000 -0.000148 -0.000004 0.000001 -0.000000 -9.103694 -0.042750 -1.864881 89.756165 14.777893 -14.672360 -3.379308 0.000328 -0.000827 90.962752 6.665061 -6.794717 -2.889748 0.000356 0.000616 95.946782 4.363426 -4.889714 -2.638815 -0.000028 0.000939 0.000005 0.000001 -0.000001 -8.076756 -0.486371 -3.806035 86.019532 15.038268 -13.900529 -3.600037 0.000283 -0.003528 89.243416 6.113363 -5.693847 -2.099991 0.000328 -0.005499 93.161738 3.007651 -2.955429 -2.115771 -0.000023 -0.003678 0.000009 -0.000001 -0.000002 4.570446 11.014691 -2.160851 -0.000018 0.000010 -0.000021 10.592356 -0.524543 -2.232261 70.936610 14.331619 -10.236881 27.841827 0.000112 -0.000235 101.987251 -64.989346 76.361467 28.328806 -0.000029 0.000029 0.000020 -0.000089 0.000001 2.466257 -1.576002 2.681812 14.198881 174.732768 -115.066257 3.217880 -1.871844 1.916427 172.395395 -17.553882 46.474205 2.656104 -1.528707 1.514504 140.024861 -26.857905 67.043450 2.020891 -1.154054 1.115138 0.000002 0.000007 0.000006 9.109369 -0.517874 2.259742 88.387545 -20.342716 19.776929 3.700058 0.000187 -0.000461 88.177537 -11.979604 11.623294 2.850027 0.000208 0.000193 86.370392 -7.083979 6.648724 2.774898 -0.000032 -0.000030 0.000001 -0.000004 -0.000001 9.533479 0.000205 -0.000089 89.103793 -19.176383 18.875173 3.700055 0.000209 -0.000365 93.022313 -9.009972 9.493338 2.950046 0.000205 -0.000219 93.331707 -7.586772 8.042759 2.952850 -0.000017 0.000061 -0.000001 0.000001 0.000000 9.104576 -0.042864 -1.865233 88.538055 -17.609585 17.174529 3.150048 0.000215 -0.000094 94.406772 -10.842874 11.706760 2.950016 0.000207 -0.000084 95.527996 -8.151739 8.977395 2.644310 0.000047 0.000061 0.000002 0.000003 -0.000000 8.077852 -0.486726 -3.806402 85.604557 -18.512645 17.720174 3.600024 0.000200 0.014567 85.364203 -15.802503 15.069803 2.100021 0.000184 0.007553 85.674082 -10.807906 10.466660 2.125518 0.000014 0.007509 -0.000000 -0.000000 0.000000 -8.207786 -6.751667 -1.599560 -0.077001 -0.000003 0.000080 -0.000002 -44.370110 0.345938 0.153719 -0.000000 -0.000000 0.000000 -44.423679 -3.043532 -0.076700 0.000000 -0.000002 -0.000006 -8.728667 10.710559 -0.000009 -0.000000 -0.000000 -0.000001 -0.000679 9.278123 0.000000 -0.000000 -0.000000 8.207792 -6.751710 -1.599556 -0.074518 -0.000003 0.000081 -0.000002 -44.370014 0.346960 0.148822 0.000002 0.000000 -0.000001 -44.423664 -3.044403 -0.074314 0.000000 -0.000002 -0.000004 -8.728671 10.710558 0.000007 -0.000000 -0.000000 0.000000 -0.000680 9.278137 -0.000000 0.000000 -0.000001 
0.000006 104.270477 1.554256 0.000010 0.000003 -0.000113 -0.000005 10.181587 0.131522 0.000001 -0.000003 0.000084 -0.000000 9.893967 -1.470711 0.000001 0.000000 -0.000000 -0.000000 9.220802 -1.370642 0.000000 -0.000000 -0.000000 0.000001 16.740433 -2.049030 0.000000 -0.000000 -0.000000 0.000000 9.617859 1.685014 0.000000 0.000000 0.000000 0.000002 22.037384 7.501101 0.000000 -0.000000 0.000000 -4.569968 11.014880 -2.160881 0.000008 0.000001 -0.000038 -10.592875 -0.524698 -2.232012 69.119868 11.521280 -7.950193 -27.841520 0.000016 0.000540 -56.137202 117.162333 82.238770 -28.328821 0.000020 0.000025 -0.000314 -0.000044 0.000007 -2.464452 -1.573941 2.682401 -25.894637 -153.654381 34.836376 -3.215288 -1.872638 1.924702 161.842972 28.809338 -13.179401 -2.654940 -1.527897 1.513077 145.052700 26.644790 -45.351889 -2.018860 -1.152014 1.108062 -0.000003 0.000004 0.000003 -9.108410 -0.517550 2.260141 103.883284 17.410975 -22.191508 -3.700072 0.000304 0.001562 103.345735 12.396425 -15.615448 -2.850061 0.000365 -0.000242 101.313863 8.301448 -10.117134 -2.772187 0.000001 -0.000019 -0.000001 -0.000001 0.000000 -9.532602 0.000285 0.000242 92.550866 15.076473 -15.901894 -3.700065 0.000339 0.003950 92.080902 8.746890 -8.974904 -2.950052 0.000335 -0.001811 92.784821 8.050495 -8.443057 -2.946630 0.000003 -0.000151 0.000005 0.000001 -0.000001 -9.103697 -0.042738 -1.864877 91.860799 14.785966 -15.223430 -3.379318 0.000340 -0.000806 93.351658 7.283695 -7.739278 -2.889760 0.000358 0.000640 96.794033 4.897643 -5.564693 -2.638809 -0.000025 0.000940 0.000003 -0.000001 -0.000000 -8.076759 -0.486377 -3.806031 86.644720 15.207901 -14.211891 -3.600048 0.000289 -0.003514 90.585261 7.600429 -7.323633 -2.100029 0.000311 -0.005488 93.943385 4.257540 -4.330558 -2.115772 -0.000029 -0.003680 -0.000002 -0.000000 -0.000005 4.570446 11.014691 -2.160851 -0.000018 0.000010 -0.000021 10.592355 -0.524548 -2.232268 70.535029 15.393375 -10.918754 27.841835 0.000099 -0.000233 102.026723 -65.416649 76.858637 28.328831 -0.000029 0.000031 0.000020 -0.000088 0.000000 2.466269 -1.576005 2.681819 13.429217 175.112144 -114.847008 3.217870 -1.871874 1.916435 170.840831 -16.389285 51.085840 2.656109 -1.528683 1.514517 141.007766 -26.433028 66.508707 2.020891 -1.154070 1.115153 -0.000005 0.000005 0.000002 9.109399 -0.517864 2.259758 88.446674 -20.310734 19.765763 3.700037 0.000170 -0.000479 88.116441 -11.222474 10.877729 2.850029 0.000201 0.000191 85.953928 -6.143096 5.723519 2.774880 -0.000047 -0.000026 -0.000000 -0.000006 -0.000000 9.533473 0.000213 -0.000069 89.357370 -19.206137 18.986823 3.700038 0.000211 -0.000389 92.533497 -8.227038 8.595093 2.950027 0.000209 -0.000201 93.382258 -6.681291 7.089704 2.952866 -0.000015 0.000064 0.000001 0.000002 -0.000000 9.104609 -0.042841 -1.865226 89.600177 -17.299933 17.183390 3.150062 0.000213 -0.000090 94.424128 -10.284074 11.107424 2.950012 0.000223 -0.000103 95.413324 -7.476456 8.217835 2.644320 0.000032 0.000052 0.000000 -0.000002 -0.000001 8.077849 -0.486700 -3.806379 87.685204 -17.731103 17.609426 3.599991 0.000207 0.014569 87.080527 -15.085048 14.836848 2.100024 0.000216 0.007531 86.504687 -10.275443 10.114640 2.125493 0.000001 0.007513 0.000000 0.000006 -0.000002 -8.207786 -6.751667 -1.599560 -0.077001 -0.000003 0.000080 -0.000002 -44.370110 0.345938 0.153719 -0.000000 -0.000000 0.000000 -44.423679 -3.043532 -0.076700 0.000000 -0.000002 -0.000006 -8.728667 10.710559 -0.000009 -0.000000 -0.000000 -0.000001 -0.000679 9.278123 0.000000 -0.000000 -0.000000 8.207792 -6.751710 -1.599556 -0.074518 -0.000003 0.000081 -0.000002 -44.370014 0.346960 0.148822 0.000002 0.000000 -0.000001 -44.423664 -3.044403 -0.074314 0.000000 -0.000002 -0.000004 -8.728671 10.710558 0.000007 -0.000000 -0.000000 0.000000 -0.000680 9.278137 -0.000000 0.000000 -0.000001 
